<?xml version="1.0" encoding="UTF-8" standalone="no"?>
<!-- Generator: Adobe Illustrator 16.0.0, SVG Export Plug-In . SVG Version: 6.00 Build 0)  -->

<svg
   xmlns:dc="http://purl.org/dc/elements/1.1/"
   xmlns:cc="http://creativecommons.org/ns#"
   xmlns:rdf="http://www.w3.org/1999/02/22-rdf-syntax-ns#"
   xmlns:svg="http://www.w3.org/2000/svg"
   xmlns="http://www.w3.org/2000/svg"
   xmlns:sodipodi="http://sodipodi.sourceforge.net/DTD/sodipodi-0.dtd"
   xmlns:inkscape="http://www.inkscape.org/namespaces/inkscape"
   version="1.1"
   id="Capa_1"
   x="0px"
   y="0px"
   width="15px"
   height="15px"
   viewBox="0 0 402.917 402.917"
   style="enable-background:new 0 0 402.917 402.917;"
   xml:space="preserve"
   sodipodi:docname="finishing-media-button-arrow.svg"
   inkscape:version="0.92.4 (f8dce91, 2019-08-02)"><metadata
   id="metadata42"><rdf:RDF><cc:Work
       rdf:about=""><dc:format>image/svg+xml</dc:format><dc:type
         rdf:resource="http://purl.org/dc/dcmitype/StillImage" /><dc:title></dc:title></cc:Work></rdf:RDF></metadata><defs
   id="defs40" /><sodipodi:namedview
   pagecolor="#ffffff"
   bordercolor="#666666"
   borderopacity="1"
   objecttolerance="10"
   gridtolerance="10"
   guidetolerance="10"
   inkscape:pageopacity="0"
   inkscape:pageshadow="2"
   inkscape:window-width="646"
   inkscape:window-height="480"
   id="namedview38"
   showgrid="false"
   inkscape:zoom="15.733333"
   inkscape:cx="7.5"
   inkscape:cy="7.5"
   inkscape:window-x="112"
   inkscape:window-y="133"
   inkscape:window-maximized="0"
   inkscape:current-layer="Capa_1" />
<g
   id="g5"
   transform="matrix(-1,0,0,1,402.916,0)">
	<g
   id="Layer_8_7_">
		<path
   d="m 386.004,20.848 v 361.213 c 0,7.447 -3.972,14.333 -10.427,18.063 -6.46,3.724 -14.398,3.724 -20.853,0 L 138.281,219.515 c -6.452,-3.719 -10.436,-10.604 -10.436,-18.058 0,-7.451 3.978,-14.34 10.436,-18.061 L 354.725,2.79 C 357.952,0.928 361.551,0 365.151,0 c 3.605,0 7.199,0.934 10.427,2.79 6.455,3.718 10.426,10.607 10.426,18.058 z M 94.066,0.201 H 25.261 c -4.613,0 -8.349,3.735 -8.349,8.34 v 385.808 c 0,4.604 3.735,8.34 8.349,8.34 h 68.805 c 4.607,0 8.34,-3.735 8.34,-8.34 V 8.547 c 0,-4.604 -3.733,-8.346 -8.34,-8.346 z"
   id="path2"
   inkscape:connector-curvature="0" />
	</g>
</g>
<g
   id="g7">
</g>
<g
   id="g9">
</g>
<g
   id="g11">
</g>
<g
   id="g13">
</g>
<g
   id="g15">
</g>
<g
   id="g17">
</g>
<g
   id="g19">
</g>
<g
   id="g21">
</g>
<g
   id="g23">
</g>
<g
   id="g25">
</g>
<g
   id="g27">
</g>
<g
   id="g29">
</g>
<g
   id="g31">
</g>
<g
   id="g33">
</g>
<g
   id="g35">
</g>
</svg>